<svg width="200" height="200" viewBox="0 0 200 200" fill="none" xmlns="http://www.w3.org/2000/svg">
<g clip-path="url(#clip0_160_2071)">
<path d="M58.7493 137.068C55.6615 133.625 52.3731 130.337 49.5397 126.696C46.4403 122.713 43.5373 118.536 40.9525 114.203C37.1868 107.891 34.2276 101.171 32.0928 94.1082C30.5866 89.1253 29.3142 84.0998 28.8574 78.8958C28.8392 78.6882 28.6352 78.497 28.4054 78.3698C28.293 73.943 28.293 69.4447 28.293 64.8091C28.4873 64.5387 28.7883 64.448 28.8602 64.2664C30.622 59.8215 33.723 56.9068 38.4392 55.8256C38.947 55.7092 39.4717 55.601 39.9888 55.5998C46.3832 55.5845 52.7792 55.6676 59.1713 55.5443C61.1975 55.5052 62.8575 56.8414 63.4219 58.5253C66.3243 67.1849 69.2018 75.853 72.02 84.5403C72.5316 86.1174 72.4135 87.7072 71.3955 89.1993C69.1398 92.5055 66.9575 95.8626 64.8023 99.2353C64.5576 99.6181 64.4458 100.386 64.6638 100.718C66.9645 104.228 69.2187 107.78 71.7457 111.125C73.5451 113.506 75.7412 115.588 77.7137 117.94C71.5035 124.211 65.3392 130.346 59.1797 136.485C59.0105 136.654 58.8916 136.873 58.7493 137.068Z" fill="#4CC764"/>
<path d="M58.7866 137.158C58.8915 136.873 59.0104 136.654 59.1795 136.485C65.3391 130.346 71.5034 124.211 77.7553 118.03C81.8149 121.696 85.8993 125.27 90.5073 128.192C91.6742 128.932 92.9234 129.55 94.0479 130.347C95.2818 131.221 96.2191 131.085 97.4625 130.193C100.449 128.049 103.644 126.196 106.639 124.064C108.182 122.966 109.748 123.015 111.302 123.517C119.96 126.317 128.589 129.205 137.23 132.058C139.269 132.732 140.269 134.393 140.242 136.277C140.151 142.521 140.128 148.769 140.235 155.012C140.314 159.653 136.527 164.833 132.206 166.287C130.563 166.841 128.767 167.113 127.029 167.178C118.499 167.494 110.231 165.965 102.079 163.548C91.9132 160.534 82.565 155.834 73.8771 149.844C70.2108 147.317 66.8427 144.349 63.4021 141.505C61.7986 140.18 60.3454 138.672 58.7866 137.158Z" fill="#009A3E"/>
<path d="M127.917 61.4868C130.374 62.5661 131.45 64.6686 130.728 66.9564C129.983 69.3157 127.956 70.4317 125.222 69.9045C125.107 69.8837 125.132 69.8485 125.182 69.7007C126.124 66.8856 127.016 64.2183 127.909 61.5509C127.909 61.5509 127.916 61.5084 127.917 61.4868Z" fill="#4E2A46"/>
<path d="M136.242 36.5437C142.96 38.7679 149.781 40.727 156.36 43.304C161.228 45.2105 165.142 48.7164 168.224 52.9938C172.862 59.4321 175.043 66.5821 174.225 74.556C174.198 74.8182 174.315 75.0951 174.482 75.3035C173.36 78.9528 172.121 82.6638 170.839 86.5051C170.57 86.7017 170.224 86.6972 170.138 86.8446C164.618 96.2783 156.15 101.044 145.51 102.106C141.77 102.479 138.007 102.055 134.378 100.756C130.107 99.2262 125.74 97.958 121.489 96.3781C119.595 95.6742 117.967 95.5988 116.281 96.6952C119.184 87.6748 122.145 78.7793 125.222 69.9045C127.956 70.4317 129.983 69.3157 130.728 66.9565C131.45 64.6686 130.374 62.5662 127.962 61.3383C130.752 52.9888 133.497 44.7663 136.242 36.5437ZM146.71 68.6408C145.408 67.0127 143.752 66.4796 141.769 67.1162C140.077 67.6594 138.912 69.2124 138.827 70.9265C138.732 72.8221 139.765 74.539 141.445 75.2791C143.098 76.0075 145.161 75.5657 146.412 74.2154C147.788 72.7298 147.931 70.9206 146.71 68.6408Z" fill="#D7D7D7"/>
<path d="M125.106 69.8834C122.145 78.7789 119.183 87.6744 116.182 96.703C110.177 99.8426 104.219 102.867 98.2391 105.848C95.6405 107.143 91.9396 105.688 91.4621 102.759C91.3596 102.131 91.4507 101.414 91.6496 100.803C93.0653 96.446 94.5322 92.1061 95.99 87.7394C88.7987 84.111 83.7814 78.5228 80.8221 71.2032C78.7141 65.9892 78.0325 60.5132 79.1423 54.9055C80.2783 49.1657 82.4425 43.9352 86.4446 39.5457C92.083 33.3617 99.097 29.9759 107.382 29.2882C110.988 28.9889 114.588 29.2051 118.087 30.4131C124.039 32.468 130.026 34.4208 136.12 36.4799C133.497 44.7659 130.752 52.9885 127.961 61.3595C127.916 61.5081 127.908 61.5506 127.804 61.5009C125.039 61.0198 122.945 62.1873 122.297 64.4638C121.655 66.7165 122.795 68.8513 125.141 69.8289C125.132 69.8482 125.106 69.8834 125.106 69.8834ZM106.014 57.9446C105.019 60.3082 105.473 62.3094 107.313 63.6633C108.878 64.8145 111.087 64.7697 112.595 63.5133C113.994 62.348 114.531 60.8372 114.089 59.0696C113.666 57.374 112.561 56.2215 110.848 55.8493C108.901 55.4262 107.308 56.1041 106.014 57.9446Z" fill="#E8E8E8"/>
<path d="M146.775 68.7287C147.931 70.9207 147.788 72.7298 146.412 74.2154C145.161 75.5657 143.098 76.0075 141.445 75.2791C139.765 74.539 138.732 72.8221 138.827 70.9265C138.912 69.2124 140.077 67.6594 141.769 67.1162C143.752 66.4796 145.408 67.0127 146.775 68.7287Z" fill="#4E2A46"/>
<path d="M106.084 57.8476C107.308 56.1039 108.901 55.4261 110.848 55.8492C112.562 56.2214 113.666 57.3739 114.09 59.0694C114.531 60.8371 113.994 62.3479 112.595 63.5132C111.087 64.7696 108.878 64.8144 107.313 63.6632C105.474 62.3092 105.019 60.3081 106.084 57.8476Z" fill="#64405C"/>
<path d="M127.804 61.5012C127.016 64.2182 126.124 66.8856 125.191 69.6815C122.795 68.8516 121.655 66.7168 122.297 64.4641C122.946 62.1876 125.04 61.0201 127.804 61.5012Z" fill="#64405C"/>
</g>
<defs>
<clipPath id="clip0_160_2071">
<rect width="150" height="150" fill="white" transform="translate(28 26)"/>
</clipPath>
</defs>
</svg>
