<svg width="200" height="200" viewBox="0 0 200 200" fill="none" xmlns="http://www.w3.org/2000/svg">
<g clip-path="url(#clip0_160_2073)">
<path d="M80.0393 173.285C69.2924 173.285 58.5456 173.285 47.6236 173.183C44.7883 172.611 42.5347 171.294 40.7337 169.377C38.0473 166.518 37.2206 162.986 37.2361 159.093C37.3047 141.755 37.2658 124.417 37.2658 107.078C37.2658 104.798 37.252 102.518 37.2696 100.238C37.2889 97.7254 39.0126 96.0124 41.4926 96.0082C42.6802 96.0062 43.8678 96.0066 45.0553 96.008C56.7401 96.0219 68.4249 96.0362 80.1058 96.1808C80.1015 121.353 80.1015 146.395 80.098 171.436C80.0979 172.053 80.0597 172.669 80.0393 173.285Z" fill="#FC1A40"/>
<path d="M148.771 111.716C148.771 111.716 148.752 111.851 148.658 112.008C148.535 112.446 148.48 112.727 148.48 113.009C148.481 129.309 148.486 145.61 148.49 161.911C148.492 166.669 144.137 171.641 139.753 172.717C139.353 172.815 138.964 172.956 138.533 173.181C127.749 173.285 117.003 173.285 106.109 173.152C105.963 147.388 105.963 121.757 105.963 96.1196C106.752 96.2658 107.335 96.3739 107.983 96.5727C118.628 100.532 129.21 104.391 139.783 108.276C142.794 109.383 145.776 110.567 148.771 111.716Z" fill="#C60034"/>
<path d="M107.918 96.4821C107.335 96.374 106.752 96.266 105.963 96.1197C105.963 121.757 105.963 147.388 105.975 173.152C101.705 173.285 97.4216 173.285 93.0065 173.152C92.8772 147.365 92.8798 121.712 92.8825 96.0586C96.9868 96.0586 101.091 96.0586 105.196 96.0586C105.207 95.9756 105.219 95.8927 105.231 95.8097C101.144 94.3291 97.0566 92.8485 92.9198 91.1439C92.8686 81.4893 92.8667 72.0589 92.8659 62.6374C92.8669 62.6463 92.8503 62.6398 92.9163 62.607C92.9639 62.4155 92.9455 62.2568 92.9177 62.013C92.904 61.6059 92.8996 61.284 92.996 60.9398C93.8012 59.2136 94.5054 57.5098 95.3232 55.8042C95.8522 55.8692 96.2904 55.8728 96.6796 56.0126C101.976 57.9159 107.271 59.8253 112.556 61.7615C114.854 62.6034 117.128 63.5099 119.397 64.4921C116.376 72.8129 113.359 81.0239 110.375 89.2472C109.506 91.6409 108.734 94.0695 107.918 96.4821Z" fill="#FE9923"/>
<path d="M92.7491 96.0382C92.8797 121.712 92.8771 147.365 92.8727 173.152C88.6827 173.285 84.4944 173.285 80.1725 173.285C80.0593 172.669 80.0975 172.053 80.0976 171.437C80.1011 146.395 80.1011 121.353 80.1054 96.1808C84.2781 96.0395 88.4469 96.0286 92.7491 96.0382Z" fill="#FCBF29"/>
<path d="M72.3001 46.9543C72.0314 43.865 72.2414 40.8071 73.5052 37.9573C76.0277 32.2695 80.2485 28.5967 86.5477 27.3869C88.5046 27.2852 90.4116 27.2852 92.4522 27.2852C92.6335 27.3748 92.6813 27.4645 92.8007 27.7169C92.8687 36.8171 92.8649 45.7545 92.7528 54.6797C91.2333 54.1564 89.8241 53.6404 88.4109 53.1352C84.4758 51.7286 80.5264 50.3607 76.6096 48.9052C75.135 48.3573 73.7344 47.6104 72.3001 46.9543Z" fill="#FE9923"/>
<path d="M107.983 96.5727C108.734 94.0695 109.507 91.6408 110.375 89.2471C113.359 81.0239 116.376 72.8128 119.501 64.4946C125.429 66.5089 131.229 68.6425 137.045 70.732C138.722 71.3343 140.444 71.8098 142.145 72.3434C145.424 73.5807 148.704 74.8154 151.982 76.0561C154.622 77.0553 157.395 77.7862 159.557 79.7611C161.964 81.9601 163.561 84.5278 163.909 87.8986C164.409 92.746 162.308 96.9155 160.78 101.243C159.701 104.299 158.448 107.294 157.403 110.361C156.664 112.532 153.979 113.399 151.711 112.721C150.784 112.444 149.896 112.038 148.88 111.703C145.776 110.567 142.794 109.383 139.783 108.276C129.21 104.391 118.628 100.532 107.983 96.5727Z" fill="#FC1A40"/>
<path d="M142.19 72.2564C140.444 71.8099 138.722 71.3345 137.045 70.7322C131.229 68.6427 125.428 66.5091 119.518 64.3897C117.129 63.51 114.854 62.6036 112.556 61.7616C107.271 59.8254 101.976 57.916 96.6797 56.0127C96.2905 55.8729 95.8523 55.8694 95.2662 55.7152C94.36 55.3975 93.6244 55.1671 92.881 54.8756C92.8731 54.8146 92.8613 54.6921 92.8613 54.6921C92.8651 45.7547 92.8688 36.8173 92.8733 27.7495C95.9288 27.8097 98.4641 29.172 100.79 31.0609C104.281 33.8963 106.203 37.6389 107.031 41.9627C107.557 44.7079 107.863 47.4951 108.269 50.2632C108.476 51.676 108.687 53.0881 108.925 54.691C110.279 53.5477 111.536 52.5143 112.762 51.4447C115.17 49.344 117.457 47.0884 119.988 45.1513C122.207 43.453 124.804 42.5122 127.643 42.0629C132.31 41.3243 136.522 42.4276 140.262 45.0265C145.037 48.3448 147.519 53.0355 147.638 58.9485C147.744 64.1657 145.799 68.4828 142.19 72.2564Z" fill="#FE8821"/>
<path d="M148.595 161.843C148.485 145.61 148.48 129.309 148.48 113.009C148.48 112.727 148.534 112.446 148.637 112.073C148.727 114.351 148.758 116.721 148.759 119.092C148.764 132.752 148.762 146.413 148.759 160.073C148.759 160.641 148.721 161.208 148.595 161.843Z" fill="#D90938"/>
<path d="M92.7527 54.6796C92.8611 54.6918 92.8729 54.8144 92.8741 55.0096C92.8819 57.1239 92.8885 59.043 92.8951 60.962C92.8995 61.2839 92.9039 61.6058 92.8942 62.1012C92.8702 62.3964 92.8602 62.518 92.8502 62.6397C92.8502 62.6397 92.8669 62.6462 92.7894 62.7051C92.4623 63.422 92.2049 64.0772 91.9641 64.7385C90.1948 69.5981 88.4473 74.4659 86.6545 79.3169C85.6118 82.1383 84.4981 84.9334 83.4163 87.7404C80.5151 86.7593 77.597 85.8248 74.7163 84.7868C69.6427 82.9588 64.5943 81.0609 59.5308 79.2045C52.8529 76.7561 46.1878 74.2709 39.4817 71.902C36.8085 70.9577 35.793 68.2672 36.8269 65.5058C38.685 60.5427 40.6294 55.6093 42.3605 50.6022C43.9079 46.1263 46.9615 43.2749 51.366 41.9548C53.8966 41.1963 56.5221 41.3585 59.0901 42.3232C63.3944 43.9401 67.7501 45.4205 72.1921 46.9562C73.7344 47.6103 75.135 48.3572 76.6095 48.9051C80.5264 50.3606 84.4758 51.7285 88.4108 53.1351C89.824 53.6403 91.2333 54.1563 92.7527 54.6796Z" fill="#FF3E75"/>
<path d="M83.4727 87.8314C84.4981 84.9335 85.6119 82.1384 86.6546 79.317C88.4473 74.466 90.1948 69.5982 91.9641 64.7386C92.2049 64.0773 92.4623 63.4221 92.7884 62.6963C92.8667 72.0589 92.8685 81.4893 92.8656 91.0556C89.7502 90.1017 86.6396 89.012 83.4727 87.8314Z" fill="#FCBF29"/>
<path d="M92.9964 60.9398C92.8889 59.0431 92.8823 57.1241 92.8823 55.0708C93.6246 55.167 94.3601 55.3975 95.1528 55.717C94.5057 57.5099 93.8015 59.2137 92.9964 60.9398Z" fill="#FC1C40"/>
<path d="M92.9164 62.607C92.8603 62.5181 92.8703 62.3965 92.9037 62.1865C92.9455 62.2568 92.9639 62.4155 92.9164 62.607Z" fill="#FDAA26"/>
</g>
<defs>
<clipPath id="clip0_160_2073">
<rect width="146" height="146" fill="white" transform="translate(27 27)"/>
</clipPath>
</defs>
</svg>
