<svg width="200" height="200" viewBox="0 0 200 200" fill="none" xmlns="http://www.w3.org/2000/svg">
<g clip-path="url(#clip0_160_2070)">
<path d="M44.6624 155.074C44.5683 155.071 44.4963 155.029 44.3938 154.822C44.2664 154.639 44.1889 154.583 44.1113 154.528C40.9845 151.248 37.6805 148.112 34.8252 144.61C33.7146 143.247 33.3518 141.086 33.1219 139.23C32.7231 136.027 33.2631 132.911 35.271 130.224C35.9191 129.356 36.5561 128.467 37.3149 127.703C43.178 121.815 49.0715 115.959 55.037 110.011C52.5805 108.188 50.2291 106.376 47.8031 104.667C45.3853 102.963 42.9758 101.287 42.2087 98.1842C40.9291 93.0064 43.4217 88.2109 48.8942 86.6761C52.4171 85.6898 56.0174 84.9695 59.5873 84.155C64.902 82.9416 70.225 81.7698 75.5369 80.5452C81.0205 79.2792 86.4903 77.9577 91.9711 76.6861C99.2023 75.01 106.436 73.3561 113.67 71.6939C115.625 71.2451 117.584 70.8074 119.647 70.4639C119.744 70.6993 119.752 70.8406 119.722 70.9736C117.149 82.1022 114.573 93.228 112 104.354C109.137 116.737 106.295 129.126 103.395 141.502C102.642 144.713 100.543 146.757 97.4492 147.885C95.4303 148.622 93.4667 148.259 91.4782 147.885C90.063 145.945 88.645 144.006 87.1217 141.917C86.7839 142.236 86.4681 142.53 86.0499 142.768C84.4492 140.557 82.9453 138.41 81.4526 136.257C80.5192 134.911 80.5165 134.9 79.345 136.072C73.6675 141.743 68.0481 147.477 62.2931 153.071C58.5875 156.672 54.1591 158.221 49.005 156.733C47.5233 156.307 46.1109 155.633 44.6652 155.074H44.6624Z" fill="#E8E8E8"/>
<path d="M91.5112 147.974C93.4637 148.262 95.4273 148.622 97.4463 147.885C100.54 146.757 102.639 144.713 103.392 141.502C106.292 129.127 109.134 116.738 111.997 104.354C114.57 93.2255 117.149 82.0997 119.719 70.9739C119.749 70.8409 119.741 70.6968 119.752 70.4503C121.228 70.0513 122.668 69.5083 124.205 70.1566C126.559 71.1512 127.551 73.4644 126.878 76.3068C125.125 83.7037 123.421 91.1145 121.691 98.5169C120.142 105.138 118.569 111.754 117.032 118.38C115.069 126.841 113.122 135.307 111.175 143.771C110.577 146.37 110.313 149.024 108.724 151.362C105.35 156.323 97.582 156.301 94.0259 151.581C93.1646 150.436 92.3753 149.237 91.514 147.976L91.5112 147.974Z" fill="#D7D7D7"/>
<path d="M44.6986 155.162C46.1082 155.636 47.5207 156.307 49.0024 156.733C54.1564 158.221 58.5849 156.672 62.2905 153.071C68.0455 147.477 73.6648 141.745 79.3423 136.072C80.5166 134.9 80.5166 134.908 81.4499 136.257C82.9427 138.41 84.4438 140.557 85.9587 142.804C80.5858 148.328 75.1687 153.727 69.8152 159.191C66.3644 162.712 62.2545 164.454 57.3441 163.897C54.6882 163.595 52.2095 162.587 50.2182 160.714C48.3405 158.944 46.5569 157.077 44.6958 155.162H44.6986Z" fill="#D7D7D7"/>
<path d="M149.391 88.5684C150.992 90.1696 152.537 91.6878 154.052 93.2364C155.883 95.1064 155.944 97.9267 154.221 99.7025C152.457 101.52 149.566 101.503 147.663 99.6194C144.586 96.5692 141.523 93.5052 138.474 90.4273C136.505 88.4382 136.46 85.6567 138.33 83.8338C140.18 82.0303 142.855 82.0885 144.819 84.0083C146.334 85.4905 147.821 87.0031 149.388 88.5711L149.391 88.5684Z" fill="#FE9923"/>
<path d="M124.634 31.0219C128.487 30.7948 130.204 32.4099 130.209 36.1416C130.212 40.2888 130.218 44.4388 130.207 48.5861C130.201 50.7858 129.174 52.3953 127.415 53.027C125.388 53.7584 123.466 53.3234 122.136 51.567C121.599 50.8578 121.258 49.8217 121.242 48.9241C121.153 44.4084 121.184 39.8899 121.209 35.3742C121.22 33.2742 122.355 31.8475 124.634 31.0219Z" fill="#FCBF29"/>
<path d="M112.005 51.1681C112.731 52.268 113.62 53.2182 113.991 54.343C114.559 56.0634 113.88 57.6203 112.521 58.795C111.166 59.9641 109.571 60.158 107.893 59.6704C107.574 59.579 107.3 59.2742 107.048 59.0249C103.791 55.7642 100.531 52.5062 97.2911 49.2289C96.0614 47.985 95.4272 46.5222 95.9063 44.7409C96.4242 42.8238 97.6899 41.7184 99.6341 41.3859C101.215 41.1172 102.523 41.7128 103.617 42.7933C106.403 45.547 109.164 48.3285 112.003 51.1681H112.005Z" fill="#FE9923"/>
<path d="M143.633 71.6107C143.705 68.4248 145.397 66.7681 148.483 66.7626C152.726 66.7543 156.971 66.7543 161.214 66.7626C164.114 66.7681 166 68.5495 166.003 71.2561C166.003 73.9933 164.169 75.758 161.245 75.7718C156.955 75.7912 152.665 75.7885 148.375 75.7718C145.741 75.7608 144.173 74.4005 143.633 71.6135V71.6107Z" fill="#FCBF29"/>
<path d="M148.461 42.1537C150.61 40.835 153.459 41.6051 154.526 43.0596C156.005 45.0764 155.775 47.542 153.911 49.4148C150.984 52.3569 148.056 55.2991 145.118 58.2301C143.104 60.2386 140.31 60.3522 138.46 58.5266C136.602 56.6926 136.685 53.8806 138.676 51.8777C141.9 48.6446 145.134 45.4227 148.461 42.1509V42.1537Z" fill="#FFA300"/>
<path d="M44.1362 154.6C44.1889 154.583 44.2664 154.639 44.3772 154.761C44.3273 154.775 44.2442 154.722 44.1362 154.6Z" fill="#FFCE67"/>
</g>
<defs>
<clipPath id="clip0_160_2070">
<rect width="133" height="133" fill="white" transform="translate(33 31)"/>
</clipPath>
</defs>
</svg>
