<svg width="200" height="200" viewBox="0 0 200 200" fill="none" xmlns="http://www.w3.org/2000/svg">
<path d="M100.354 153.048C88.7169 153.067 77.0795 153.088 65.4422 153.104C60.5978 153.11 55.75 153.212 50.9108 153.053C48.8877 152.987 46.8831 152.357 44.7372 151.962C44.6043 151.941 44.5846 151.957 44.5313 151.87C44.2692 151.689 44.0604 151.596 43.8516 151.502C39.5582 148.616 37.7475 144.592 37.7702 139.423C37.8597 119.058 37.7966 98.6918 37.8139 78.3261C37.8193 71.9641 41.7442 67.0508 47.7722 65.8327C48.8045 65.6241 49.8892 65.6179 50.9498 65.6156C58.8238 65.5986 66.698 65.5755 74.5715 65.6371C75.8555 65.6471 76.4571 65.2524 76.8532 64.0336C77.7116 61.3926 78.7217 58.8007 79.6825 56.1934C81.3841 51.5763 84.438 49.4247 89.3752 49.3958C92.9273 49.375 96.4795 49.3954 100.196 49.5678C100.364 52.0654 100.369 54.3928 100.205 56.7285C96.6098 56.7371 93.1818 56.7112 89.7549 56.7633C89.1754 56.7722 88.2289 56.9683 88.084 57.3306C87.0886 59.8199 86.2614 62.3766 85.2597 65.2577C90.5556 65.2577 95.4477 65.2577 100.343 65.4255C100.352 68.2104 100.358 70.8275 100.199 73.4476C80.2371 73.3228 62.5893 90.1311 63.3779 111.798C64.0853 131.233 80.0758 147.37 100.349 147.549C100.351 149.493 100.353 151.271 100.354 153.048ZM52.9375 130.357C52.189 130.517 51.3955 130.569 50.7002 130.857C48.1502 131.915 46.5608 133.788 46.3141 136.597C46.0511 139.592 47.1918 141.975 49.863 143.402C52.4343 144.776 55.0179 144.562 57.3856 142.821C59.6508 141.156 60.6145 138.227 59.8646 135.555C58.9914 132.444 56.8115 130.734 52.9375 130.357Z" fill="#707789"/>
<path d="M100.363 73.4445C100.357 70.8274 100.351 68.2103 100.33 65.413C100.314 65.2328 100.304 65.1992 100.473 65.2232C105.461 65.2472 110.28 65.2472 115.527 65.2472C114.52 62.3532 113.658 59.7581 112.675 57.2095C112.562 56.9157 111.778 56.75 111.303 56.7469C107.648 56.7229 103.993 56.7537 100.344 56.7538C100.35 56.7399 100.372 56.7201 100.372 56.7201C100.368 54.3927 100.364 52.0654 100.362 49.5809C104.502 49.3988 108.649 49.1998 112.776 49.403C116.183 49.5708 118.752 51.4338 120.511 54.6428C120.72 55.0072 120.834 55.1817 120.949 55.3563C120.949 55.3563 120.956 55.3284 120.948 55.4736C121.998 58.5628 123.013 61.5241 124.158 64.4339C124.354 64.9311 125.093 65.5083 125.607 65.5343C127.612 65.6356 129.626 65.53 131.637 65.5014C137.662 65.527 143.688 65.6521 149.709 65.5478C154.849 65.4587 158.692 67.5284 161.49 72.0106C161.656 72.2761 161.747 72.3518 161.837 72.4275C161.837 72.4275 161.83 72.4058 161.821 72.4125C162.18 75.0295 162.857 77.6386 162.868 80.2505C162.957 100.333 162.921 120.416 162.915 140.499C162.912 147.799 157.776 153.085 150.445 153.11C133.858 153.167 117.27 153.118 100.518 153.08C100.352 151.27 100.351 149.493 100.351 147.552C100.352 147.389 100.348 147.383 100.513 147.386C102.385 147.277 104.104 147.269 105.794 147.038C125.94 144.285 140.019 125.15 137.029 104.854C134.383 86.8921 118.227 72.9188 100.362 73.4464C100.36 73.4483 100.363 73.4445 100.363 73.4445ZM137.226 88.4098C143.201 88.4098 149.177 88.3965 155.152 88.4224C156.188 88.4269 156.843 88.2573 156.821 86.9944C156.768 83.9188 156.793 80.8416 156.807 77.7651C156.811 76.8335 156.468 76.3325 155.462 76.3347C149.249 76.3484 143.037 76.3164 136.826 76.3955C136.405 76.4008 135.649 77.1783 135.635 77.6154C135.533 80.807 135.534 84.0049 135.64 87.1962C135.654 87.6133 136.456 88.0041 137.226 88.4098Z" fill="#555A66"/>
<path d="M120.946 55.2477C120.835 55.1816 120.72 55.007 120.6 54.7222C120.71 54.7876 120.826 54.9634 120.946 55.2477Z" fill="#F6A407"/>
<path d="M43.9106 151.605C44.0604 151.596 44.2692 151.689 44.5364 151.881C44.3865 151.889 44.1781 151.798 43.9106 151.605Z" fill="#FFA300"/>
<path d="M161.809 72.3479C161.747 72.3518 161.656 72.2761 161.562 72.1079C161.652 72.0827 161.726 72.1671 161.809 72.3479Z" fill="#FFA300"/>
<path d="M100.35 147.386C80.0759 147.369 64.0854 131.233 63.378 111.798C62.5894 90.131 80.2372 73.3227 100.199 73.4475C100.364 73.4445 100.36 73.4482 100.358 73.6137C100.355 77.9881 100.354 82.197 100.193 86.4441C99.0313 86.5491 98.0194 86.55 97.0278 86.6927C87.1151 88.1188 79.0251 95.622 76.9654 105.27C74.8653 115.107 78.997 125.031 87.4435 130.518C91.3756 133.072 95.7339 134.16 100.349 134.572C100.347 138.946 100.348 143.165 100.348 147.383C100.348 147.383 100.353 147.389 100.35 147.386Z" fill="#9196AA"/>
<path d="M53.0879 130.356C56.8116 130.734 58.9915 132.444 59.8647 135.555C60.6146 138.227 59.6509 141.156 57.3856 142.821C55.018 144.562 52.4343 144.776 49.8631 143.402C47.1919 141.975 46.0512 139.592 46.3142 136.597C46.5608 133.788 48.1503 131.915 50.7002 130.857C51.3956 130.569 52.1891 130.517 53.0879 130.356Z" fill="#BDC2D1"/>
<path d="M100.327 65.2449C95.4478 65.2574 90.5557 65.2574 85.2598 65.2574C86.2615 62.3762 87.0887 59.8196 88.0841 57.3302C88.229 56.9679 89.1754 56.7718 89.755 56.763C93.1819 56.7109 96.6099 56.7368 100.205 56.7281C100.373 56.7198 100.35 56.7396 100.346 56.9185C100.329 59.7978 100.316 62.4984 100.304 65.1989C100.304 65.1989 100.315 65.2325 100.327 65.2449Z" fill="#BEC3D2"/>
<path d="M100.514 147.385C100.347 143.165 100.347 138.946 100.351 134.519C100.355 134.311 100.353 134.204 100.514 134.232C101.681 134.224 102.701 134.286 103.689 134.138C117.571 132.064 126.6 119.079 123.77 105.296C121.532 94.3965 110.933 85.9353 100.359 86.554C100.363 86.5045 100.352 86.4057 100.352 86.4057C100.353 82.1968 100.354 77.9879 100.36 73.6116C118.227 72.9186 134.383 86.8919 137.029 104.854C140.019 125.15 125.94 144.285 105.794 147.038C104.104 147.269 102.385 147.276 100.514 147.385Z" fill="#707789"/>
<path d="M137.059 88.4082C136.456 88.0039 135.654 87.6131 135.641 87.196C135.534 84.0047 135.533 80.8068 135.635 77.6152C135.649 77.1781 136.405 76.4006 136.826 76.3952C143.037 76.3162 149.25 76.3482 155.462 76.3345C156.468 76.3323 156.811 76.8333 156.807 77.7649C156.793 80.8414 156.768 83.9185 156.821 86.9941C156.843 88.2571 156.188 88.4267 155.153 88.4222C149.177 88.3963 143.201 88.4095 137.059 88.4082Z" fill="#9095A9"/>
<path d="M100.473 65.2232C100.316 62.4986 100.329 59.7981 100.34 56.9326C103.994 56.7537 107.649 56.7229 111.304 56.7468C111.778 56.7499 112.562 56.9157 112.676 57.2094C113.659 59.7581 114.521 62.3532 115.528 65.2472C110.28 65.2472 105.461 65.2472 100.473 65.2232Z" fill="#9297AA"/>
<path d="M100.353 134.364C95.7337 134.16 91.3753 133.072 87.4433 130.518C78.9968 125.031 74.8651 115.107 76.9651 105.27C79.0249 95.622 87.1148 88.1187 97.0275 86.6926C98.0191 86.55 99.0311 86.549 100.193 86.4441C100.352 86.4059 100.364 86.5047 100.357 86.7209C100.351 102.693 100.352 118.449 100.353 134.204C100.353 134.204 100.355 134.311 100.353 134.364ZM98.1056 114.019C100.138 111.379 100.297 108.401 98.5328 106.023C96.8724 103.786 93.8456 102.9 91.2459 103.941C88.7536 104.94 87.3739 106.843 87.2487 109.492C87.1231 112.151 88.3447 114.199 90.7383 115.374C93.3578 116.66 95.7814 116.156 98.1056 114.019ZM89.9972 94.5133C88.105 93.6396 86.3057 93.7288 84.7403 95.1821C83.4224 96.4056 82.9724 97.9478 83.4884 99.7001C84.0534 101.618 85.7216 102.895 87.6674 102.952C89.5872 103.008 91.4175 101.756 92.0465 99.9562C92.7302 98.0006 92.1165 96.2197 89.9972 94.5133Z" fill="#424A53"/>
<path d="M100.515 134.233C100.352 118.449 100.351 102.693 100.353 86.7708C110.933 85.9358 121.532 94.3969 123.77 105.296C126.6 119.079 117.572 132.064 103.69 134.139C102.701 134.286 101.681 134.225 100.515 134.233Z" fill="#23272B"/>
<path d="M98.0137 114.112C95.7812 116.156 93.3576 116.66 90.7382 115.374C88.3445 114.199 87.1229 112.151 87.2486 109.492C87.3737 106.844 88.7534 104.94 91.2457 103.941C93.8454 102.9 96.8723 103.786 98.5326 106.024C100.297 108.401 100.138 111.379 98.0137 114.112Z" fill="#FCFDFD"/>
<path d="M90.1116 94.5935C92.1165 96.2199 92.7302 98.0008 92.0465 99.9565C91.4175 101.756 89.5872 103.008 87.6674 102.952C85.7216 102.895 84.0534 101.619 83.4884 99.7003C82.9724 97.948 83.4224 96.4058 84.7403 95.1823C86.3057 93.729 88.105 93.6398 90.1116 94.5935Z" fill="#FCFCFC"/>
</svg>
