<svg width="90" height="81" viewBox="0 0 90 81" fill="none" xmlns="http://www.w3.org/2000/svg">
<path d="M47.1295 34.8576C46.5687 34.3079 45.8148 34 45.0295 34C44.2442 34 43.4903 34.3079 42.9295 34.8576L33.9295 43.5576C33.6112 43.8202 33.3505 44.1458 33.1637 44.5138C32.9769 44.8818 32.8681 45.2844 32.844 45.6964C32.8199 46.1085 32.8811 46.521 33.0237 46.9083C33.1663 47.2956 33.3873 47.6493 33.6729 47.9472C33.9585 48.2452 34.3024 48.481 34.6833 48.64C35.0642 48.799 35.4737 48.8777 35.8864 48.8711C36.299 48.8646 36.7059 48.773 37.0816 48.602C37.4572 48.4311 37.7935 48.1844 38.0695 47.8776L41.9995 44.0676V60.9876C41.9995 61.7832 42.3156 62.5463 42.8782 63.1089C43.4408 63.6715 44.2038 63.9876 44.9995 63.9876C45.7951 63.9876 46.5582 63.6715 47.1208 63.1089C47.6834 62.5463 47.9995 61.7832 47.9995 60.9876V44.2176L51.8695 48.1176C52.1484 48.3988 52.4802 48.6219 52.8458 48.7742C53.2113 48.9265 53.6035 49.005 53.9995 49.005C54.3955 49.005 54.7877 48.9265 55.1532 48.7742C55.5188 48.6219 55.8506 48.3988 56.1295 48.1176C56.4107 47.8387 56.6339 47.5069 56.7862 47.1413C56.9385 46.7757 57.0169 46.3836 57.0169 45.9876C57.0169 45.5915 56.9385 45.1994 56.7862 44.8338C56.6339 44.4683 56.4107 44.1365 56.1295 43.8576L47.1295 34.8576Z" fill="#83BADA" fill-opacity="0.56"/>
<path d="M70.3293 18.2755C68.4987 12.9391 65.0649 8.31126 60.5057 5.03574C55.9465 1.76022 50.4887 0 44.8917 0C39.2946 0 33.8368 1.76022 29.2776 5.03574C24.7184 8.31126 21.2846 12.9391 19.454 18.2755C15.4232 18.8202 11.615 20.4601 8.4368 23.0199C5.25858 25.5798 2.8299 28.9632 1.41055 32.8082C-0.00879345 36.6532 -0.365402 40.8151 0.378874 44.8488C1.12315 48.8825 2.94031 52.6362 5.63596 55.7083C5.96158 56.287 6.40965 56.7861 6.94826 57.1701C7.48688 57.5542 8.10279 57.8136 8.75214 57.9301C9.40149 58.0466 10.0683 58.0172 10.7051 57.844C11.3419 57.6708 11.933 57.3581 12.4364 56.9281C12.9397 56.4982 13.3429 55.9615 13.6173 55.3564C13.8916 54.7513 14.0303 54.0926 14.0236 53.4272C14.0168 52.7618 13.8647 52.1061 13.5781 51.5068C13.2915 50.9075 12.8775 50.3793 12.3655 49.9599C10.6298 48.0021 9.49417 45.5784 9.09624 42.9825C8.69831 40.3866 9.05517 37.7301 10.1236 35.3347C11.192 32.9393 12.926 30.908 15.1156 29.4869C17.3052 28.0658 19.8563 27.3159 22.4598 27.3282H22.9085C23.958 27.3495 24.9818 26.9989 25.8015 26.3372C26.6213 25.6756 27.1851 24.7449 27.3948 23.7071C28.2186 19.6142 30.4195 15.9345 33.6246 13.2915C36.8297 10.6485 40.8419 9.20463 44.9814 9.20463C49.1209 9.20463 53.1331 10.6485 56.3382 13.2915C59.5433 15.9345 61.7442 19.6142 62.5679 23.7071C62.7777 24.7449 63.3415 25.6756 64.1612 26.3372C64.981 26.9989 66.0047 27.3495 67.0543 27.3282H67.3235C69.927 27.3159 72.4781 28.0658 74.6677 29.4869C76.8573 30.908 78.5914 32.9393 79.6598 35.3347C80.7281 37.7301 81.085 40.3866 80.6871 42.9825C80.2891 45.5784 79.1535 48.0021 77.4178 49.9599C77.0226 50.407 76.7193 50.9288 76.5255 51.4951C76.3317 52.0614 76.2513 52.6608 76.2888 53.2587C76.3264 53.8566 76.4812 54.441 76.7443 54.978C77.0074 55.5151 77.3736 55.9941 77.8216 56.3873C78.6395 57.115 79.6921 57.5173 80.7826 57.5189C81.4196 57.5181 82.0491 57.3804 82.6293 57.1151C83.2094 56.8497 83.7269 56.4627 84.1473 55.9799C86.9178 52.9131 88.7992 49.1368 89.5858 45.0639C90.3725 40.991 90.0342 36.7783 88.6078 32.8864C87.1815 28.9944 84.7221 25.573 81.4984 22.9962C78.2747 20.4193 74.4109 18.7862 70.3293 18.2755Z" fill="#83BADA" fill-opacity="0.56"/>
</svg>
